# xmcd CD database file
#
# Track frame offsets:
#	150
#	31317
#	43147
#	59083
#	70788
#	84376
#	98609
#	112844
#	125646
#	150508
#	157436
#	170121
#
# Disc length: 2406 seconds
#
# Revision: 0
# Processed by: cddbd v1.5.1PL2 Copyright (c) Steve Scherf et al.
# Submitted via: CDex 1.51
#
DISCID=a209640c
DTITLE=FLEETWOOD MAC - THE PIOUS BIRD OF GOOD OMEN (836)
DYEAR=1968
DGENRE=Blues
TTITLE0=NEED YOUR LOVE SO BAD
TTITLE1=COMING HOME
TTITLE2=RAMPLING PONY
TTITLE3=THE BIG BOAT
TTITLE4=I BELIEVE MY TIME AIN'T LONG
TTITLE5=THE SUN IS SHINING
TTITLE6=ALBATROSS
TTITLE7=BLACK MAGIC WOMAN
TTITLE8=JUST THE BLUES (FT. EDDIE BOYD)
TTITLE9=JIGSAW PUZZLE BLUES
TTITLE10=LOOKING FOR SOMEBODY
TTITLE11=STOP MESSIN`ROUND
EXTD=YEAR: 1968
EXTT0=
EXTT1=
EXTT2=
EXTT3=
EXTT4=
EXTT5=
EXTT6=
EXTT7=
EXTT8=
EXTT9=
EXTT10=
EXTT11=
PLAYORDER=
